<svg width="188" height="112" viewBox="0 0 188 112" fill="none" xmlns="http://www.w3.org/2000/svg">
<g opacity="0.2">
<path d="M153.728 106.683C153.728 103.774 151.356 101.417 148.429 101.417C145.502 101.417 143.13 103.774 143.13 106.683C143.13 109.591 145.502 111.949 148.429 111.949C151.356 111.949 153.728 109.591 153.728 106.683Z" fill="white"/>
<path d="M187.734 71.4219C187.734 68.5136 185.361 66.156 182.434 66.156C179.508 66.156 177.135 68.5136 177.135 71.4219C177.135 74.3302 179.508 76.6878 182.434 76.6878C185.361 76.6878 187.734 74.3302 187.734 71.4219Z" fill="white"/>
<path d="M187.734 5.36076C187.734 2.45248 185.361 0.0948874 182.434 0.0948875C179.508 0.0948876 177.135 2.45248 177.135 5.36076C177.135 8.26905 179.508 10.6267 182.434 10.6267C185.361 10.6267 187.734 8.26905 187.734 5.36076Z" fill="white"/>
<path d="M153.728 36.1894C153.728 33.2812 151.356 30.9235 148.429 30.9235C145.502 30.9235 143.13 33.2812 143.13 36.1894C143.13 39.0977 145.502 41.4553 148.429 41.4553C151.356 41.4553 153.728 39.0977 153.728 36.1894Z" fill="white"/>
<path d="M125.11 106.683C125.11 103.774 122.737 101.417 119.811 101.417C116.884 101.417 114.511 103.774 114.511 106.683C114.511 109.591 116.884 111.949 119.811 111.949C122.737 111.949 125.11 109.591 125.11 106.683Z" fill="white"/>
<path d="M159.115 71.4219C159.115 68.5136 156.743 66.156 153.816 66.156C150.889 66.156 148.517 68.5136 148.517 71.4219C148.517 74.3302 150.889 76.6878 153.816 76.6878C156.743 76.6878 159.115 74.3302 159.115 71.4219Z" fill="white"/>
<path d="M159.115 5.36076C159.115 2.45248 156.743 0.0948874 153.816 0.0948875C150.889 0.0948876 148.517 2.45248 148.517 5.36076C148.517 8.26905 150.889 10.6267 153.816 10.6267C156.743 10.6267 159.115 8.26905 159.115 5.36076Z" fill="white"/>
<path d="M125.11 36.1894C125.11 33.2812 122.737 30.9235 119.811 30.9235C116.884 30.9235 114.511 33.2812 114.511 36.1894C114.511 39.0977 116.884 41.4553 119.811 41.4553C122.737 41.4553 125.11 39.0977 125.11 36.1894Z" fill="white"/>
<path d="M85.8737 106.683C85.8737 107.724 86.1846 108.742 86.7669 109.608C87.3492 110.474 88.1767 111.149 89.1451 111.548C90.1134 111.946 91.1789 112.051 92.2069 111.847C93.2349 111.644 94.1791 111.143 94.9202 110.406C95.6614 109.67 96.166 108.731 96.3705 107.71C96.575 106.688 96.4701 105.63 96.069 104.667C95.6679 103.705 94.9887 102.883 94.1172 102.304C93.2457 101.726 92.2212 101.417 91.1731 101.417C90.4763 101.414 89.7857 101.548 89.1413 101.811C88.4969 102.075 87.9115 102.462 87.4187 102.952C86.926 103.442 86.5358 104.023 86.2706 104.664C86.0054 105.304 85.8705 105.99 85.8737 106.683Z" fill="white"/>
<path d="M119.879 71.3277C119.879 72.3692 120.19 73.3873 120.772 74.2533C121.354 75.1193 122.182 75.7942 123.15 76.1928C124.118 76.5913 125.184 76.6956 126.212 76.4924C127.24 76.2893 128.184 75.7877 128.925 75.0513C129.666 74.3148 130.171 73.3765 130.376 72.355C130.58 71.3335 130.475 70.2747 130.074 69.3125C129.673 68.3503 128.994 67.5279 128.122 66.9492C127.251 66.3706 126.226 66.0618 125.178 66.0618C123.773 66.0618 122.425 66.6166 121.431 67.6041C120.437 68.5917 119.879 69.9311 119.879 71.3277Z" fill="white"/>
<path d="M119.879 5.26594C119.879 6.30744 120.19 7.32556 120.772 8.19154C121.354 9.05751 122.182 9.73244 123.15 10.131C124.118 10.5296 125.184 10.6339 126.212 10.4307C127.24 10.2275 128.184 9.72595 128.925 8.9895C129.666 8.25305 130.171 7.31476 130.376 6.29327C130.58 5.27178 130.475 4.21298 130.074 3.25076C129.673 2.28854 128.994 1.4661 128.122 0.887472C127.251 0.308845 126.226 2.54718e-05 125.178 2.55176e-05C123.773 2.5579e-05 122.425 0.554823 121.431 1.54237C120.437 2.52993 119.879 3.86933 119.879 5.26594Z" fill="white"/>
<path d="M85.8733 36.1894C85.8733 37.2309 86.1841 38.249 86.7664 39.115C87.3487 39.9809 88.1763 40.6559 89.1446 41.0545C90.113 41.453 91.1785 41.5573 92.2065 41.3541C93.2345 41.1509 94.1787 40.6494 94.9198 39.913C95.6609 39.1765 96.1656 38.2382 96.3701 37.2167C96.5746 36.1952 96.4697 35.1364 96.0686 34.1742C95.6675 33.212 94.9883 32.3896 94.1168 31.8109C93.2453 31.2323 92.2207 30.9234 91.1726 30.9234C89.7672 30.9234 88.4193 31.4782 87.4255 32.4658C86.4316 33.4533 85.8733 34.7928 85.8733 36.1894Z" fill="white"/>
<path d="M67.8536 106.683C67.8536 103.774 65.4811 101.417 62.5544 101.417C59.6276 101.417 57.255 103.774 57.255 106.683C57.255 109.591 59.6276 111.949 62.5544 111.949C65.4811 111.949 67.8536 109.591 67.8536 106.683Z" fill="white"/>
<path d="M101.859 71.4219C101.859 68.5136 99.4866 66.156 96.5598 66.156C93.6331 66.156 91.2605 68.5136 91.2605 71.4219C91.2605 74.3302 93.6331 76.6878 96.5598 76.6878C99.4866 76.6878 101.859 74.3302 101.859 71.4219Z" fill="white"/>
<path d="M101.859 5.36076C101.859 2.45248 99.4866 0.0948874 96.5598 0.0948875C93.6331 0.0948876 91.2605 2.45248 91.2605 5.36076C91.2605 8.26905 93.6331 10.6267 96.5598 10.6267C99.4866 10.6267 101.859 8.26905 101.859 5.36076Z" fill="white"/>
<path d="M67.8536 36.1894C67.8536 33.2811 65.4811 30.9235 62.5544 30.9235C59.6276 30.9235 57.255 33.2811 57.255 36.1894C57.255 39.0977 59.6276 41.4553 62.5544 41.4553C65.4811 41.4553 67.8536 39.0977 67.8536 36.1894Z" fill="white"/>
<path d="M39.2402 106.683C39.2402 103.774 36.8676 101.417 33.9408 101.417C31.0141 101.417 28.6415 103.774 28.6415 106.683C28.6415 109.591 31.0141 111.949 33.9408 111.949C36.8676 111.949 39.2402 109.591 39.2402 106.683Z" fill="white"/>
<path d="M73.2455 71.4219C73.2455 68.5136 70.8729 66.156 67.9462 66.156C65.0195 66.156 62.6469 68.5136 62.6469 71.4219C62.6469 74.3302 65.0195 76.6879 67.9462 76.6879C70.8729 76.6879 73.2455 74.3302 73.2455 71.4219Z" fill="white"/>
<path d="M73.2452 5.36076C73.2452 2.45248 70.8726 0.0948874 67.9458 0.0948875C65.0191 0.0948876 62.6465 2.45248 62.6465 5.36076C62.6465 8.26905 65.0191 10.6267 67.9458 10.6267C70.8726 10.6267 73.2452 8.26905 73.2452 5.36076Z" fill="white"/>
<path d="M39.2399 36.1894C39.2399 33.2811 36.8673 30.9235 33.9406 30.9235C31.0138 30.9235 28.6412 33.2811 28.6412 36.1894C28.6412 39.0977 31.0138 41.4553 33.9406 41.4553C36.8673 41.4553 39.2399 39.0977 39.2399 36.1894Z" fill="white"/>
<path d="M5.42882e-05 106.686C-0.00471442 107.733 0.303447 108.759 0.885484 109.632C1.46752 110.505 2.29727 111.186 3.26957 111.59C4.24186 111.994 5.31292 112.103 6.34714 111.901C7.38136 111.7 8.33217 111.198 9.07907 110.459C9.82598 109.72 10.3354 108.778 10.5427 107.751C10.7501 106.724 10.6461 105.659 10.2439 104.691C9.84172 103.723 9.15942 102.896 8.28347 102.313C7.40753 101.731 6.37733 101.42 5.32344 101.42C4.6255 101.417 3.93382 101.551 3.28809 101.814C2.64236 102.077 2.05532 102.465 1.56067 102.954C1.06603 103.443 0.673577 104.025 0.405757 104.665C0.137936 105.306 4.70477e-05 105.993 5.42882e-05 106.686Z" fill="white"/>
<path d="M34.0054 71.3326C34.0007 72.3798 34.3088 73.4049 34.8909 74.2779C35.4729 75.151 36.3026 75.8327 37.2749 76.2368C38.2472 76.6408 39.3183 76.749 40.3525 76.5476C41.3867 76.3462 42.3375 75.8443 43.0844 75.1055C43.8313 74.3666 44.3407 73.4241 44.5481 72.3973C44.7555 71.3705 44.6515 70.3057 44.2493 69.3377C43.8471 68.3697 43.1648 67.5421 42.2888 66.9598C41.4129 66.3775 40.3827 66.0667 39.3288 66.0666C37.9211 66.0666 36.5707 66.6207 35.5731 67.6075C34.5755 68.5944 34.0118 69.9337 34.0054 71.3326Z" fill="white"/>
<path d="M34.0054 5.26935C34.0007 6.31659 34.3088 7.34169 34.8909 8.21474C35.4729 9.0878 36.3026 9.76952 37.2749 10.1736C38.2472 10.5776 39.3183 10.6858 40.3525 10.4844C41.3867 10.283 42.3375 9.78109 43.0844 9.04225C43.8313 8.30342 44.3407 7.36089 44.5481 6.33412C44.7555 5.30734 44.6515 4.2425 44.2493 3.27451C43.8471 2.30652 43.1648 1.47894 42.2888 0.896618C41.4129 0.314296 40.3827 0.00344821 39.3288 0.00343776C37.9211 0.00342352 36.5707 0.557455 35.5731 1.54432C34.5755 2.53119 34.0118 3.87054 34.0054 5.26935Z" fill="white"/>
<path d="M5.42882e-05 36.193C-0.00471442 37.2402 0.303447 38.2653 0.885484 39.1384C1.46752 40.0114 2.29727 40.6932 3.26957 41.0972C4.24186 41.5013 5.31292 41.6094 6.34714 41.408C7.38136 41.2066 8.33217 40.7047 9.07907 39.9659C9.82598 39.227 10.3354 38.2845 10.5427 37.2578C10.7501 36.231 10.6461 35.1661 10.2439 34.1982C9.84172 33.2302 9.15942 32.4026 8.28347 31.8203C7.40753 31.2379 6.37733 30.9271 5.32344 30.927C3.91575 30.927 2.56537 31.4811 1.56773 32.4679C0.570089 33.4548 0.00642387 34.7942 5.42882e-05 36.193Z" fill="white"/>
</g>
</svg>
