<svg width="70" height="70" viewBox="0 0 70 70" fill="none" xmlns="http://www.w3.org/2000/svg">
<rect width="70" height="70" rx="35" fill="#1BC47A"/>
<path d="M43.0305 29.3156C42.4209 28.6427 39.088 24.9694 38.8742 24.7398C38.795 24.6606 38.6209 24.5498 38.4308 24.5498H26.5716C26.4529 24.5498 26.2471 24.621 26.1361 24.7398L21.9799 29.3077V29.3156C21.8216 29.4898 21.7661 29.7748 21.9167 30.0202C21.988 30.1311 21.1171 29.0544 32.042 42.4495C32.1291 42.5603 32.327 42.6711 32.5012 42.6711C32.6755 42.6711 32.8734 42.5603 32.9604 42.4495C38.6842 35.4353 37.2988 37.1373 43.0463 30.0836C43.2363 29.854 43.2125 29.5215 43.0305 29.3156ZM31.4799 25.7373L29.0575 28.6427L27.5533 25.7373H31.4799ZM26.4371 26.1727L27.9649 29.1177H23.7611L26.4371 26.1727ZM32.5012 39.932L29.7303 30.3052H35.272L32.5012 39.932ZM33.5225 25.7373H37.4571L35.945 28.6427L33.5225 25.7373ZM37.0375 29.1177L38.5655 26.1727L41.2413 29.1177H37.0375Z" fill="white"/>
<path d="M53.045 37.8499L49.9892 32.9495C49.4351 32.0628 49.1025 31.1128 49.0154 30.1865C48.2712 22.3094 41.6529 15.9998 33.3958 15.9998C33.19 15.9998 32.9841 16.0077 32.7862 16.0156C32.6596 16.0156 32.5407 15.9998 32.4221 15.9998C23.8561 15.9998 16.7469 22.9031 16.7469 31.667C16.7469 35.8549 18.3778 39.7816 21.3228 42.7266C23.3335 44.7453 24.4895 47.627 24.4895 50.6512V53.4062C24.4895 53.7308 24.7588 54 25.0833 54H41.3679C41.7004 54 41.9616 53.7308 41.9616 53.4062V47.342H45.0967C47.2975 47.342 49.0867 45.5528 49.0867 43.352V40.0032H51.8655C52.3721 40.0032 52.8233 39.7341 53.0688 39.2987C53.3221 38.8474 53.3142 38.3012 53.045 37.8499ZM51.0579 38.7128C51.0421 38.7524 50.9867 38.8157 50.8917 38.8157H47.5113C47.1866 38.8157 46.9175 39.077 46.9175 39.4095V43.352C46.9175 44.8957 45.6667 46.1545 44.1229 46.1545H40.3941C40.0695 46.1545 39.8004 46.4158 39.8004 46.7483V52.8124H25.677V50.6512C25.677 47.3183 24.3944 44.1199 22.1618 41.8874C19.4385 39.164 17.9345 35.5382 17.9345 31.667C17.9345 23.5523 24.5291 17.1873 32.4221 17.1873C40.0378 17.1873 46.1654 22.9981 46.8542 30.2973C46.957 31.4057 47.3608 32.5378 48.0021 33.5749L51.0579 38.4753C51.1212 38.5782 51.0817 38.6732 51.0579 38.7128Z" fill="white"/>
</svg>
