<svg width="35" height="35" viewBox="0 0 35 35" fill="none" xmlns="http://www.w3.org/2000/svg">
<rect x="1.3064" y="1.37085" width="32.6586" height="32.6586" rx="16.3293" stroke="#FCFCFC" strokeWidth="0.8374"/>
<path d="M18.4962 9.3272C19.1073 9.32486 19.7183 9.331 20.3293 9.34563L20.4917 9.35149C20.6793 9.35819 20.8644 9.36656 21.0879 9.37661C21.9789 9.41848 22.5869 9.55916 23.1203 9.766C23.673 9.9787 24.1386 10.2668 24.6042 10.7324C25.0299 11.1507 25.3594 11.6568 25.5697 12.2154C25.7765 12.7488 25.9172 13.3576 25.9591 14.2486C25.9691 14.4713 25.9775 14.6572 25.9842 14.8448L25.9892 15.0073C26.0041 15.6179 26.0105 16.2287 26.0085 16.8395L26.0093 17.4642V18.5612C26.0114 19.1723 26.005 19.7834 25.9901 20.3943L25.9851 20.5567C25.9784 20.7443 25.97 20.9294 25.9599 21.153C25.9181 22.044 25.7757 22.6519 25.5697 23.1853C25.3601 23.7445 25.0305 24.251 24.6042 24.6692C24.1855 25.0949 23.6791 25.4243 23.1203 25.6347C22.5869 25.8416 21.9789 25.9822 21.0879 26.0241C20.8644 26.0342 20.6793 26.0425 20.4917 26.0492L20.3293 26.0543C19.7184 26.0691 19.1073 26.0756 18.4962 26.0735L17.8715 26.0744H16.7753C16.1643 26.0764 15.5532 26.07 14.9423 26.0551L14.7798 26.0501C14.581 26.0429 14.3823 26.0345 14.1836 26.0249C13.2926 25.9831 12.6846 25.8407 12.1504 25.6347C11.5916 25.4248 11.0854 25.0953 10.6673 24.6692C10.2411 24.2507 9.91136 23.7443 9.70098 23.1853C9.49414 22.6519 9.35346 22.044 9.31159 21.153C9.30227 20.9543 9.29389 20.7555 9.28647 20.5567L9.28228 20.3943C9.26684 19.7834 9.25986 19.1723 9.26135 18.5612V16.8395C9.25901 16.2287 9.26515 15.6179 9.27977 15.0073L9.28563 14.8448C9.29233 14.6572 9.30071 14.4713 9.31075 14.2486C9.35262 13.3568 9.49331 12.7497 9.70014 12.2154C9.91064 11.6565 10.2411 11.1506 10.6682 10.7332C11.086 10.3068 11.5918 9.97667 12.1504 9.766C12.6846 9.55916 13.2918 9.41848 14.1836 9.37661L14.7798 9.35149L14.9423 9.3473C15.5529 9.33187 16.1637 9.32489 16.7745 9.32636L18.4962 9.3272ZM17.6353 13.5142C17.0806 13.5064 16.5298 13.6088 16.015 13.8157C15.5001 14.0226 15.0316 14.3297 14.6365 14.7193C14.2414 15.1088 13.9277 15.573 13.7135 16.0848C13.4994 16.5967 13.3891 17.146 13.3891 17.7008C13.3891 18.2556 13.4994 18.8049 13.7135 19.3167C13.9277 19.8286 14.2414 20.2928 14.6365 20.6823C15.0316 21.0718 15.5001 21.379 16.015 21.5858C16.5298 21.7927 17.0806 21.8952 17.6353 21.8874C18.7458 21.8874 19.8108 21.4462 20.596 20.661C21.3812 19.8758 21.8223 18.8108 21.8223 17.7004C21.8223 16.5899 21.3812 15.5249 20.596 14.7397C19.8108 13.9545 18.7458 13.5142 17.6353 13.5142ZM17.6353 15.189C17.9691 15.1828 18.3006 15.2433 18.6107 15.3667C18.9208 15.4901 19.2032 15.6741 19.4414 15.9079C19.6796 16.1417 19.8688 16.4207 19.998 16.7284C20.1272 17.0362 20.1938 17.3666 20.1938 17.7004C20.1939 18.0341 20.1274 18.3645 19.9983 18.6723C19.8693 18.9801 19.6801 19.2591 19.442 19.493C19.2039 19.7269 18.9216 19.911 18.6115 20.0345C18.3015 20.1581 17.9699 20.2186 17.6362 20.2126C16.9699 20.2126 16.3309 19.9479 15.8598 19.4768C15.3887 19.0056 15.124 18.3666 15.124 17.7004C15.124 17.0341 15.3887 16.3951 15.8598 15.924C16.3309 15.4528 16.9699 15.1882 17.6362 15.1882L17.6353 15.189ZM22.0317 12.2581C21.7615 12.2689 21.5061 12.3838 21.3187 12.5788C21.1314 12.7738 21.0268 13.0336 21.0268 13.304C21.0268 13.5744 21.1314 13.8343 21.3187 14.0292C21.5061 14.2242 21.7615 14.3391 22.0317 14.3499C22.3093 14.3499 22.5756 14.2396 22.7719 14.0433C22.9682 13.847 23.0784 13.5808 23.0784 13.3032C23.0784 13.0256 22.9682 12.7593 22.7719 12.563C22.5756 12.3667 22.3093 12.2564 22.0317 12.2564V12.2581Z" fill="#FCFCFC"/>
</svg>
