<svg width="70" height="70" viewBox="0 0 70 70" fill="none" xmlns="http://www.w3.org/2000/svg">
<rect width="70" height="70" rx="35" fill="#1BC47A"/>
<path d="M30.8461 30.0854H17.2637C16.0153 30.0854 15 31.1345 15 32.4242V51.661C15 52.9507 16.0153 54 17.2637 54H30.8461C32.0946 54 33.1098 52.9507 33.1098 51.661V32.4242C33.1098 31.1345 32.0946 30.0854 30.8461 30.0854ZM31.7684 51.661C31.7684 52.2112 31.3544 52.6586 30.8461 52.6586H17.2637C16.7554 52.6586 16.3415 52.2112 16.3415 51.661V32.4242C16.3415 31.8743 16.7554 31.4269 17.2637 31.4269H30.8461C31.3544 31.4269 31.7684 31.8743 31.7684 32.4242V51.661Z" fill="white"/>
<path d="M20.1189 37.6974H27.9909C28.8319 37.6974 29.5164 37.0129 29.5164 36.1719V34.7462C29.5164 33.9052 28.8319 33.2207 27.9909 33.2207H20.1189C19.2779 33.2207 18.5934 33.9052 18.5934 34.7462V36.1719C18.5934 37.0129 19.2779 37.6974 20.1189 37.6974ZM19.9349 34.7462C19.9349 34.6447 20.0174 34.5622 20.1189 34.5622H27.9909C28.0924 34.5622 28.1749 34.6447 28.1749 34.7462V36.1719C28.1749 36.2734 28.0924 36.3559 27.9909 36.3559H20.1189C20.0174 36.3559 19.9349 36.2734 19.9349 36.1719V34.7462Z" fill="white"/>
<path d="M21.5396 40.1177H19.5634C18.6982 40.1177 17.994 40.8408 17.994 41.729V42.9834C17.994 43.8716 18.6982 44.5947 19.5634 44.5947H21.5396C22.4049 44.5947 23.1084 43.8716 23.1084 42.9834V41.729C23.1084 40.8408 22.4049 40.1177 21.5396 40.1177ZM21.7669 42.9834C21.7669 43.1321 21.6647 43.2532 21.5396 43.2532H19.5634C19.4377 43.2532 19.3355 43.1321 19.3355 42.9834V41.729C19.3355 41.5803 19.4377 41.4591 19.5634 41.4591H21.5396C21.6647 41.4591 21.7669 41.5803 21.7669 41.729V42.9834Z" fill="white"/>
<path d="M28.5464 40.1177H26.5702C25.705 40.1177 25.0015 40.8408 25.0015 41.729V42.9834C25.0015 43.8716 25.705 44.5947 26.5702 44.5947H28.5464C29.4117 44.5947 30.1158 43.8716 30.1158 42.9834V41.729C30.1158 40.8408 29.4117 40.1177 28.5464 40.1177ZM28.7743 42.9834C28.7743 43.1321 28.6722 43.2532 28.5464 43.2532H26.5702C26.4451 43.2532 26.3429 43.1321 26.3429 42.9834V41.729C26.3429 41.5803 26.4451 41.4591 26.5702 41.4591H28.5464C28.6722 41.4591 28.7743 41.5803 28.7743 41.729V42.9834Z" fill="white"/>
<path d="M21.5396 45.7612H19.5634C18.6982 45.7612 17.994 46.4844 17.994 47.3726V48.6263C17.994 49.5145 18.6982 50.2376 19.5634 50.2376H21.5396C22.4049 50.2376 23.1084 49.5145 23.1084 48.6263V47.3726C23.1084 46.4844 22.4049 45.7612 21.5396 45.7612ZM21.7669 48.6263C21.7669 48.775 21.6647 48.8961 21.5396 48.8961H19.5634C19.4377 48.8961 19.3355 48.775 19.3355 48.6263V47.3726C19.3355 47.2239 19.4377 47.1027 19.5634 47.1027H21.5396C21.6647 47.1027 21.7669 47.2239 21.7669 47.3726V48.6263Z" fill="white"/>
<path d="M28.5464 45.7612H26.5702C25.705 45.7612 25.0015 46.4844 25.0015 47.3726V48.6263C25.0015 49.5145 25.705 50.2376 26.5702 50.2376H28.5464C29.4117 50.2376 30.1158 49.5145 30.1158 48.6263V47.3726C30.1158 46.4844 29.4117 45.7612 28.5464 45.7612ZM28.7743 48.6263C28.7743 48.775 28.6722 48.8961 28.5464 48.8961H26.5702C26.4451 48.8961 26.3429 48.775 26.3429 48.6263V47.3726C26.3429 47.2239 26.4451 47.1027 26.5702 47.1027H28.5464C28.6722 47.1027 28.7743 47.2239 28.7743 47.3726V48.6263Z" fill="white"/>
<path d="M53.7258 40.2689C53.4337 39.9689 53.1009 39.7056 52.7394 39.4875C54.8152 37.2011 53.4246 33.0136 50.3545 32.7853V23.0142H53.2319C53.6027 23.0142 53.9027 22.7139 53.9027 22.3435V19.5515C53.9027 17.5933 52.3097 16 50.3512 16H31.9603C29.6357 16.0082 27.744 17.9009 27.744 20.2189V28.0732C27.744 28.4436 28.044 28.744 28.4148 28.744C28.7855 28.744 29.0855 28.4436 29.0855 28.0732V20.2189C29.0641 18.4412 30.7772 17.0308 32.5263 17.3987C32.5378 17.4015 32.549 17.4041 32.5605 17.4066C32.7141 17.4395 32.8614 17.4886 33.005 17.545C33.0086 17.5466 33.0097 17.5471 33.0136 17.5488C33.0608 17.5652 33.1114 17.5879 33.1593 17.6119C34.1114 18.0524 34.7779 18.9951 34.8228 20.1006C34.8502 20.2144 34.8258 22.1748 34.8339 22.3455C34.8339 22.7159 35.1339 23.0162 35.5046 23.0162H49.013V32.9369C46.4087 33.6428 45.4833 37.5 47.3486 39.4882C45.8152 40.4143 44.8412 42.0912 44.8412 43.9364V45.4455C44.8412 45.8163 45.1412 46.1162 45.5119 46.1162H49.013V48.866H35.1221C34.7514 48.866 34.4514 49.166 34.4514 49.5367C34.4514 49.9075 34.7514 50.2075 35.1221 50.2075H49.6837C50.0545 50.2075 50.3545 49.9075 50.3545 49.5367V46.1162H54.5734C54.9441 46.1162 55.2441 45.8163 55.2441 45.4455V43.9364C55.2441 42.534 54.7011 41.2279 53.7258 40.2689ZM50.3512 17.3415C51.5695 17.3415 52.5612 18.3328 52.5612 19.5515V21.6728H36.176V20.2163C36.176 19.1064 35.745 18.0951 35.0415 17.3415H50.3512ZM53.9027 44.7748H46.1827V43.9364C46.1827 42.2903 47.2268 40.825 48.7818 40.2912C49.0267 40.2074 49.201 39.9899 49.2305 39.7325C49.2593 39.4751 49.1374 39.2242 48.9174 39.0873C46.9517 37.9428 47.4916 34.379 49.7997 34.1265C52.4011 33.832 53.3395 37.802 51.1699 39.086C50.6917 39.3596 50.7798 40.1347 51.3075 40.2925C51.8623 40.4798 52.366 40.7949 52.7747 41.2148C53.7516 42.1136 53.987 43.4889 53.9027 44.7748Z" fill="white"/>
<path d="M35.7927 30.7563H37.8049C38.6815 30.7526 38.6825 29.4185 37.8049 29.4148L35.7927 29.4148C34.9161 29.4184 34.9151 30.7526 35.7927 30.7563Z" fill="white"/>
<path d="M46.5245 30.7563C47.4001 30.7528 47.4029 29.4185 46.5244 29.4148L41.1586 29.4148C40.283 29.4182 40.2802 30.7526 41.1586 30.7563L46.5245 30.7563Z" fill="white"/>
<path d="M35.7927 34.1098H41.8294C42.7047 34.1064 42.708 32.772 41.8293 32.7683L35.7927 32.7683C34.9174 32.7717 34.9141 34.1061 35.7927 34.1098Z" fill="white"/>
<path d="M34.4513 37.4635V40.8171C34.4513 41.1879 34.7513 41.4879 35.122 41.4879H42.5001C42.8708 41.4879 43.1708 41.1879 43.1708 40.8171V37.4635C43.1708 37.0927 42.8708 36.7927 42.5001 36.7927H35.122C34.7513 36.7927 34.4513 37.0927 34.4513 37.4635ZM35.7928 38.1342H41.8294V40.1464H35.7928V38.1342Z" fill="white"/>
</svg>
