<svg width="73" height="73" viewBox="0 0 73 73" fill="none" xmlns="http://www.w3.org/2000/svg">
<rect width="73" height="73" rx="36.5" fill="#1BC47A"/>
<path fill-rule="evenodd" clip-rule="evenodd" d="M19.134 16.0002H29.0232C29.2644 16.0002 29.4865 16.1315 29.6027 16.3428L32.0751 20.837C32.2057 21.0745 32.1782 21.3676 32.0057 21.5767L24.5887 30.5653C24.463 30.7175 24.276 30.8056 24.0786 30.8056C23.8813 30.8056 23.6942 30.7175 23.5686 30.5653L16.1515 21.5767C15.979 21.3676 15.9515 21.0745 16.0822 20.837L18.5545 16.3428C18.6708 16.1315 18.8928 16.0002 19.134 16.0002ZM22.9601 17.3228H20.2525L21.6063 19.7839L22.9601 17.3228ZM19.134 18.0334C18.7421 18.7458 18.1459 19.8296 17.7801 20.4945H20.4878L19.134 18.0334ZM18.0645 21.8171C19.0905 23.0604 21.1945 25.6103 22.6212 27.3392L21.1023 21.8171H18.0645ZM25.536 27.3391L30.0927 21.8171H27.0549L25.536 27.3391ZM30.3771 20.4945C30.0114 19.8296 29.4151 18.7458 29.0233 18.0335L27.6694 20.4945H30.3771ZM27.9048 17.3228H25.1971L26.5509 19.7839L27.9048 17.3228ZM25.4325 20.4945L24.0786 18.0335L22.7248 20.4945H25.4325ZM22.474 21.8171L24.0786 27.651L25.6833 21.8171H22.474ZM49.8051 32.0331C51.5181 32.0331 52.9067 33.4218 52.9067 35.1347C52.9067 36.8476 51.5181 38.2363 49.8051 38.2363H42.0419V45.2818L46.121 52.347C46.9775 53.8304 46.4692 55.7274 44.9858 56.5839C43.5023 57.4403 41.6054 56.9321 40.7489 55.4486L36.7721 48.5606H36.2279L32.2511 55.4486C31.3947 56.9321 29.4978 57.4403 28.0143 56.5839C26.5309 55.7274 26.0226 53.8304 26.879 52.347L30.9581 45.2818V38.2363H23.1949C21.482 38.2363 20.0933 36.8476 20.0933 35.1347C20.0933 33.4218 21.482 32.0331 23.1949 32.0331H49.8051ZM49.8051 33.3556H23.1949C22.2124 33.3556 21.4159 34.1521 21.4159 35.1347C21.4159 36.1172 22.2124 36.9137 23.1949 36.9137H31.6194C31.9846 36.9137 32.2807 37.2098 32.2807 37.575V45.459C32.2807 45.5751 32.2501 45.6891 32.1921 45.7897L28.0244 53.0083C27.5331 53.8592 27.8247 54.9472 28.6756 55.4385C29.5265 55.9298 30.6145 55.6382 31.1058 54.7873L35.2734 47.5687C35.3916 47.3641 35.6099 47.238 35.8462 47.238H37.1539C37.3902 47.238 37.6085 47.3641 37.7266 47.5687L41.8943 54.7873C42.3855 55.6382 43.4736 55.9298 44.3245 55.4385C45.1754 54.9472 45.467 53.8592 44.9757 53.0083L40.808 45.7897C40.7499 45.6891 40.7194 45.5751 40.7194 45.459V37.575C40.7194 37.2098 41.0154 36.9137 41.3806 36.9137H49.8051C50.7876 36.9137 51.5842 36.1172 51.5842 35.1347C51.5842 34.1521 50.7876 33.3556 49.8051 33.3556ZM36.6006 21.9954C39.1406 21.9954 41.2027 24.0576 41.2027 26.5976C41.2027 29.1375 39.1406 31.1997 36.6006 31.1997C34.0606 31.1997 31.9985 29.1375 31.9985 26.5976C31.9985 24.0576 34.0606 21.9954 36.6006 21.9954ZM36.6006 23.318C34.7906 23.318 33.3211 24.7875 33.3211 26.5976C33.3211 28.4076 34.7906 29.8771 36.6006 29.8771C38.4106 29.8771 39.8802 28.4076 39.8802 26.5976C39.8802 24.7875 38.4106 23.318 36.6006 23.318ZM49.95 30.0999C46.0672 30.0999 42.9002 26.9329 42.9002 23.0501C42.9002 19.1672 46.0672 16.0002 49.95 16.0002C53.8328 16.0002 56.9998 19.1672 56.9998 23.0501C56.9998 26.9329 53.8328 30.0999 49.95 30.0999ZM49.95 28.7773C53.1044 28.7773 55.6772 26.2045 55.6772 23.0501C55.6772 19.8957 53.1044 17.3228 49.95 17.3228C46.7956 17.3228 44.2227 19.8957 44.2227 23.0501C44.2227 26.2045 46.7956 28.7773 49.95 28.7773ZM49.2887 19.3301V19.0087C49.2887 18.6437 49.585 18.3474 49.95 18.3474C50.315 18.3474 50.6112 18.6437 50.6112 19.0087V19.3226C51.3749 19.4956 52.078 19.9879 52.4418 20.8546C52.5829 21.1912 52.4244 21.579 52.0879 21.7203C51.7513 21.8614 51.3634 21.7029 51.2222 21.3663C50.8955 20.5878 50.022 20.4324 49.3956 20.6788C49.042 20.8179 48.7548 21.1001 48.7754 21.5151L48.7755 21.5167C48.7906 21.8375 49.0018 22.0183 49.2497 22.1393C49.4999 22.2615 49.7895 22.3295 50.0627 22.3739L50.0638 22.3741C51.218 22.5641 52.4792 23.0946 52.6443 24.4666C52.8057 25.8003 51.7401 26.5779 50.6112 26.7907V27.0936C50.6112 27.4585 50.315 27.7549 49.95 27.7549C49.585 27.7549 49.2887 27.4585 49.2887 27.0936V26.781C48.3338 26.5796 47.5132 25.9474 47.2599 24.9296C47.1717 24.5754 47.3876 24.2164 47.7418 24.1282C48.096 24.04 48.4551 24.256 48.5432 24.6102C48.7067 25.2669 49.3746 25.5437 50.0168 25.5278H50.0183C50.3667 25.5199 50.755 25.4345 51.0407 25.2375C51.2336 25.1045 51.3653 24.9057 51.3313 24.6254L51.3312 24.6248C51.287 24.2567 51.0336 24.0567 50.7424 23.9244C50.4631 23.7975 50.1459 23.728 49.8501 23.6793C48.7189 23.4951 47.5178 22.9205 47.4544 21.5792C47.4039 20.5505 48.0347 19.793 48.9115 19.4481C49.0332 19.4002 49.1594 19.3608 49.2887 19.3301Z" fill="white"/>
</svg>
