<svg width="208" height="40" viewBox="0 0 208 40" fill="none" xmlns="http://www.w3.org/2000/svg">
<path d="M42.6904 38.9905C42.1853 38.9905 41.7434 38.8138 41.3645 38.4602C40.9857 38.0814 40.7963 37.6394 40.7963 37.1343V17.1709H34.849C34.3439 17.1709 33.9019 16.9815 33.5231 16.6027C33.1695 16.2238 32.9928 15.7819 32.9928 15.2768C32.9928 14.7465 33.1695 14.3045 33.5231 13.951C33.9019 13.5974 34.3439 13.4206 34.849 13.4206H50.5318C51.0622 13.4206 51.5041 13.5974 51.8577 13.951C52.2112 14.3045 52.388 14.7465 52.388 15.2768C52.388 15.8071 52.2112 16.2617 51.8577 16.6405C51.5041 16.9941 51.0622 17.1709 50.5318 17.1709H44.5466V37.1343C44.5466 37.6394 44.3572 38.0814 43.9784 38.4602C43.6248 38.8138 43.1955 38.9905 42.6904 38.9905ZM60.4316 38.9905C58.6385 38.9905 57.0223 38.6117 55.5828 37.8541C54.1685 37.0712 53.0574 35.9727 52.2492 34.5584C51.4411 33.1189 51.037 31.4269 51.037 29.4823C51.037 27.8913 51.3906 26.376 52.0977 24.9365C52.8301 23.4718 53.8402 22.2975 55.1282 21.4136C56.4414 20.5297 57.9314 20.0877 59.5982 20.0877C61.1387 20.0877 62.4519 20.4034 63.5379 21.0348C64.6491 21.6409 65.4824 22.3732 66.038 23.2319C66.5936 24.0905 66.8714 24.8608 66.8714 25.5427C66.8714 25.871 66.7704 26.1866 66.5684 26.4897C66.3663 26.7927 66.0759 27.0579 65.6971 27.2852L55.5449 33.1189C55.8985 33.9018 56.5172 34.5079 57.4011 34.9372C58.3102 35.3665 59.3204 35.5812 60.4316 35.5812C61.8963 35.5812 63.1464 35.0382 64.1819 33.9523C64.5859 33.5482 65.0026 33.3462 65.4319 33.3462C65.937 33.3462 66.3537 33.5104 66.682 33.8387C67.0356 34.167 67.2124 34.571 67.2124 35.0509C67.2124 35.4549 67.0608 35.8338 66.7578 36.1873C66.0507 36.9702 65.1036 37.6394 63.9167 38.195C62.755 38.7254 61.5933 38.9905 60.4316 38.9905ZM63.1212 25.0881C62.8181 24.5577 62.3888 24.1663 61.8332 23.9138C61.2776 23.636 60.621 23.4971 59.8634 23.4971C58.4239 23.4971 57.2117 23.9895 56.2268 24.9744C55.2671 25.9593 54.7115 27.1715 54.56 28.611C54.5095 28.9899 54.4842 29.4444 54.4842 29.9748L63.1212 25.0881ZM70.2887 38.7632C69.7079 38.7632 69.2533 38.5865 68.925 38.2329C68.622 37.8793 68.4704 37.45 68.4704 36.9449C68.4704 36.5156 68.5967 36.1494 68.8492 35.8464L78.4711 23.9138H70.5539C70.0488 23.9138 69.6195 23.737 69.2659 23.3834C68.9124 23.0299 68.7356 22.6005 68.7356 22.0954C68.7356 21.5904 68.9124 21.161 69.2659 20.8075C69.6195 20.4287 70.0488 20.2393 70.5539 20.2393H82.0698C82.6254 20.2393 83.0674 20.4287 83.3957 20.8075C83.724 21.161 83.8881 21.5904 83.8881 22.0954C83.8881 22.4995 83.7619 22.8657 83.5093 23.194L73.8875 35.1266H82.335C82.8401 35.1266 83.2694 35.3034 83.623 35.657C83.9765 36.0105 84.1533 36.4399 84.1533 36.9449C84.1533 37.4248 83.9639 37.8541 83.5851 38.2329C83.2315 38.5865 82.8148 38.7632 82.335 38.7632H70.2887ZM106.774 38.9905C105.891 38.9905 105.31 38.5612 105.032 37.7026L98.4405 16.0723C98.3142 15.6177 98.2511 15.2137 98.2511 14.8601C98.2511 14.3803 98.4279 13.9888 98.7814 13.6858C99.135 13.3575 99.5643 13.1933 100.069 13.1933C101.004 13.1933 101.61 13.6353 101.888 14.5192L106.85 30.846L112.154 14.4813C112.431 13.6227 113.037 13.1933 113.972 13.1933C114.881 13.1933 115.462 13.6353 115.714 14.5192L120.222 30.8839L126.283 14.1025C126.612 13.2186 127.218 12.7766 128.102 12.7766C128.607 12.7766 129.036 12.9408 129.39 13.2691C129.743 13.5721 129.92 13.9636 129.92 14.4434C129.92 14.8727 129.857 15.2768 129.731 15.6556L121.738 37.7783C121.611 38.1571 121.397 38.4602 121.094 38.6875C120.791 38.8895 120.437 38.9905 120.033 38.9905C119.048 38.9905 118.442 38.536 118.215 37.6268L113.782 21.6409L108.593 37.7026C108.441 38.1824 108.214 38.5233 107.911 38.7254C107.633 38.9021 107.254 38.9905 106.774 38.9905ZM139.006 38.9905C137.213 38.9905 135.596 38.6117 134.157 37.8541C132.743 37.0712 131.632 35.9727 130.823 34.5584C130.015 33.1189 129.611 31.4269 129.611 29.4823C129.611 27.8913 129.965 26.376 130.672 24.9365C131.404 23.4718 132.414 22.2975 133.702 21.4136C135.016 20.5297 136.506 20.0877 138.172 20.0877C139.713 20.0877 141.026 20.4034 142.112 21.0348C143.223 21.6409 144.057 22.3732 144.612 23.2319C145.168 24.0905 145.446 24.8608 145.446 25.5427C145.446 25.871 145.345 26.1866 145.143 26.4897C144.941 26.7927 144.65 27.0579 144.271 27.2852L134.119 33.1189C134.473 33.9018 135.091 34.5079 135.975 34.9372C136.884 35.3665 137.895 35.5812 139.006 35.5812C140.471 35.5812 141.721 35.0382 142.756 33.9523C143.16 33.5482 143.577 33.3462 144.006 33.3462C144.511 33.3462 144.928 33.5104 145.256 33.8387C145.61 34.167 145.787 34.571 145.787 35.0509C145.787 35.4549 145.635 35.8338 145.332 36.1873C144.625 36.9702 143.678 37.6394 142.491 38.195C141.329 38.7254 140.168 38.9905 139.006 38.9905ZM141.695 25.0881C141.392 24.5577 140.963 24.1663 140.407 23.9138C139.852 23.636 139.195 23.4971 138.438 23.4971C136.998 23.4971 135.786 23.9895 134.801 24.9744C133.841 25.9593 133.286 27.1715 133.134 28.611C133.084 28.9899 133.058 29.4444 133.058 29.9748L141.695 25.0881ZM161.553 39.3693C161.048 39.3693 160.631 39.2304 160.303 38.9527C160 38.6749 159.849 38.3087 159.849 37.8541V37.3238C158.813 38.4349 157.374 38.9905 155.53 38.9905C154.141 38.9905 152.891 38.6496 151.78 37.9677C150.669 37.2859 149.797 36.3262 149.166 35.0888C148.535 33.826 148.219 32.3992 148.219 30.8082C148.219 29.0404 148.598 27.3357 149.355 25.6942C150.113 24.0274 151.174 22.6763 152.537 21.6409C153.926 20.6054 155.517 20.0877 157.31 20.0877C158.472 20.0877 159.52 20.2519 160.455 20.5802C161.389 20.8832 162.361 21.2621 163.372 21.7166V37.4753C163.372 37.9804 163.195 38.4223 162.841 38.8011C162.488 39.1799 162.058 39.3693 161.553 39.3693ZM155.795 35.4676C156.528 35.4676 157.235 35.316 157.917 35.013C158.624 34.7099 159.205 34.3438 159.659 33.9144L159.773 24.0274C159.04 23.7243 158.245 23.5728 157.386 23.5728C156.3 23.5728 155.341 23.9138 154.507 24.5956C153.674 25.2522 153.03 26.1361 152.575 27.2473C152.121 28.3332 151.893 29.4949 151.893 30.7324C151.893 32.2729 152.234 33.4472 152.916 34.2554C153.598 35.0635 154.558 35.4676 155.795 35.4676ZM170.486 38.9905C170.006 38.9905 169.577 38.8264 169.198 38.4981C168.845 38.1445 168.668 37.7404 168.668 37.2859V15.3147C168.668 14.8096 168.832 14.3929 169.16 14.0646C169.514 13.711 169.956 13.5343 170.486 13.5343C170.966 13.5343 171.383 13.711 171.736 14.0646C172.115 14.4182 172.304 14.8349 172.304 15.3147V37.2859C172.304 37.7404 172.115 38.1445 171.736 38.4981C171.357 38.8264 170.941 38.9905 170.486 38.9905ZM180.916 39.0284C180.436 39.0284 180.007 38.8516 179.628 38.4981C179.274 38.1445 179.098 37.7278 179.098 37.248V23.7243H176.105C175.6 23.7243 175.171 23.5476 174.817 23.194C174.463 22.8152 174.287 22.3859 174.287 21.906C174.287 21.3504 174.476 20.9085 174.855 20.5802C175.234 20.2266 175.676 20.0499 176.181 20.0499H179.098V15.9965C179.098 15.5167 179.274 15.0874 179.628 14.7086C179.982 14.3298 180.411 14.1404 180.916 14.1404C181.446 14.1404 181.876 14.3298 182.204 14.7086C182.557 15.0621 182.734 15.4915 182.734 15.9965V20.0499H185.954C186.459 20.0499 186.889 20.2266 187.242 20.5802C187.596 20.9338 187.772 21.3757 187.772 21.906C187.772 22.3859 187.596 22.8152 187.242 23.194C186.889 23.5476 186.459 23.7243 185.954 23.7243H182.734V37.248C182.734 37.7278 182.557 38.1445 182.204 38.4981C181.85 38.8516 181.421 39.0284 180.916 39.0284ZM191.868 39.0284C191.389 39.0284 190.959 38.8516 190.58 38.4981C190.227 38.1193 190.05 37.6899 190.05 37.2101V15.3904C190.05 14.8854 190.227 14.456 190.58 14.1025C190.959 13.7237 191.414 13.5343 191.944 13.5343C192.449 13.5343 192.866 13.7237 193.194 14.1025C193.522 14.456 193.687 14.8854 193.687 15.3904V23.5349C194.52 22.4743 195.467 21.6282 196.528 20.9969C197.588 20.3403 198.649 20.012 199.71 20.012C201.705 20.012 203.106 21.0221 203.915 23.0425C204.723 25.0376 205.127 28.207 205.127 32.5507C205.127 35.0004 205.089 36.5788 205.013 37.2859C204.988 37.7657 204.799 38.1698 204.445 38.4981C204.117 38.8264 203.713 38.9905 203.233 38.9905C202.702 38.9905 202.273 38.8264 201.945 38.4981C201.616 38.1445 201.452 37.7152 201.452 37.2101C201.452 36.705 201.465 36.2883 201.49 35.96L201.528 32.8159C201.528 29.154 201.326 26.7043 200.922 25.4669C200.543 24.2294 200.063 23.6107 199.482 23.6107C198.75 23.6107 198.005 23.9516 197.247 24.6335C196.49 25.2901 195.833 26.0351 195.278 26.8685C194.747 27.6766 194.369 28.3206 194.141 28.8004C193.838 29.4823 193.687 30.3788 193.687 31.49V37.1343C193.687 37.7152 193.51 38.1824 193.156 38.536C192.803 38.8643 192.373 39.0284 191.868 39.0284Z" fill="white"/>
<rect x="23.5274" y="13.7632" width="3.71389" height="25.1719" rx="1.85695" fill="white"/>
<rect x="16.9249" y="18.3025" width="3.71389" height="20.6327" rx="1.85695" fill="white"/>
<rect x="10.3224" y="24.4923" width="3.71389" height="14.4429" rx="1.85695" fill="white"/>
<path d="M26.5111 0L19.9074 4.41523L21.5584 5.24086C19.1633 10.0305 14.0751 15.0835 8.29473 14.7823C3.15515 14.1437 0 8.90743 0 8.90743C1.82468 13.6338 5.6148 15.4998 8.23523 16.0018C15.2129 17.3389 21.5584 12.5051 25.4171 7.10275L27.1256 7.92838L26.5111 0Z" fill="white"/>
</svg>
