<svg width="74" height="73" viewBox="0 0 74 73" fill="none" xmlns="http://www.w3.org/2000/svg">
<rect x="0.5" width="73" height="73" rx="36.5" fill="#1BC47A"/>
<path d="M24.428 50.9029C24.6517 50.7885 24.8698 50.6612 25.0807 50.5211C25.3867 50.3187 25.7535 50.2008 26.1474 50.2008C26.3776 50.2008 26.5986 50.2415 26.8037 50.3152C27.2206 49.3879 28.1514 48.7416 29.2339 48.7416L29.9166 48.7423C30.5301 47.6548 31.6954 46.9199 33.0331 46.9199C33.3434 46.9199 33.6451 46.9599 33.9325 47.0342C34.7254 46.049 35.9401 45.4185 37.3028 45.4185C38.6655 45.4185 39.8802 46.049 40.6731 47.0342C40.9605 46.9599 41.2622 46.9199 41.5725 46.9199C42.9102 46.9199 44.0756 47.6548 44.689 48.7423L45.3718 48.7416C46.4542 48.7416 47.3851 49.3879 47.8019 50.3152C48.0071 50.2415 48.228 50.2008 48.4582 50.2008C48.8522 50.2008 49.2189 50.3187 49.5249 50.5211C50.7375 51.3254 52.1803 51.71 53.6359 51.71H53.997C54.5889 51.71 55.0694 52.1905 55.0694 52.7825V54.0694H19.5363V52.7825C19.5363 52.1905 20.0167 51.71 20.6087 51.71H20.9697C21.29 51.71 21.6089 51.6914 21.9256 51.6536" stroke="white" strokeWidth="1.07243" stroke-miterlimit="10" stroke-linecap="round" stroke-linejoin="round"/>
<path d="M46.7841 51.1734C47.1179 50.5966 47.7437 50.2007 48.4581 50.2007" stroke="white" strokeWidth="1.07243" stroke-miterlimit="10" stroke-linecap="round" stroke-linejoin="round"/>
<path d="M27.8443 51.1734C27.5105 50.5966 26.8618 50.2007 26.1475 50.2007" stroke="white" strokeWidth="1.07243" stroke-miterlimit="10" stroke-linecap="round" stroke-linejoin="round"/>
<path d="M37.3027 45.4185V36.696" stroke="white" strokeWidth="1.07243" stroke-miterlimit="10" stroke-linecap="round" stroke-linejoin="round"/>
<path d="M37.3027 45.1029C37.3027 43.4746 39.2264 41.8462 40.752 41.8462" stroke="white" strokeWidth="1.07243" stroke-miterlimit="10" stroke-linecap="round" stroke-linejoin="round"/>
<path d="M49.7622 40.5032C50.45 41.0501 50.8582 41.5834 50.8582 41.853C50.8582 42.535 48.2422 44.913 45.0914 44.913C41.9399 44.913 40.7545 41.853 40.7545 41.853C40.7545 41.853 41.9399 38.7937 45.0914 38.7937C45.9765 38.7937 46.8187 38.981 47.573 39.2663" stroke="white" strokeWidth="1.07243" stroke-miterlimit="10" stroke-linecap="round" stroke-linejoin="round"/>
<path d="M45.8063 41.3077V39.0083" stroke="white" strokeWidth="1.07243" stroke-miterlimit="10" stroke-linecap="round" stroke-linejoin="round"/>
<path d="M40.7544 41.8533H47.7458V44.2913" stroke="white" strokeWidth="1.07243" stroke-miterlimit="10" stroke-linecap="round" stroke-linejoin="round"/>
<path d="M43.8129 41.8713V44.6258" stroke="white" strokeWidth="1.07243" stroke-miterlimit="10" stroke-linecap="round" stroke-linejoin="round"/>
<path d="M37.3028 45.1029C37.3028 43.4746 35.3792 41.8462 33.8535 41.8462" stroke="white" strokeWidth="1.07243" stroke-miterlimit="10" stroke-linecap="round" stroke-linejoin="round"/>
<path d="M29.5142 44.9125C32.6654 44.9125 33.8511 41.8531 33.8511 41.8531C33.8511 41.8531 32.6654 38.7937 29.5142 38.7937C26.3631 38.7937 23.7474 41.1716 23.7474 41.8531C23.7474 42.5347 26.3631 44.9125 29.5142 44.9125Z" stroke="white" strokeWidth="1.07243" stroke-miterlimit="10" stroke-linecap="round" stroke-linejoin="round"/>
<path d="M28.7993 41.3077V39.0083" stroke="white" strokeWidth="1.07243" stroke-miterlimit="10" stroke-linecap="round" stroke-linejoin="round"/>
<path d="M33.8511 41.8533H26.8596V44.2913" stroke="white" strokeWidth="1.07243" stroke-miterlimit="10" stroke-linecap="round" stroke-linejoin="round"/>
<path d="M30.7927 41.8713V44.6258" stroke="white" strokeWidth="1.07243" stroke-miterlimit="10" stroke-linecap="round" stroke-linejoin="round"/>
<path d="M46.3827 25.3775V35.5112C46.3827 36.1654 45.8522 36.6959 45.198 36.6959H29.4076C28.7534 36.6959 28.2229 36.1654 28.2229 35.5112V19.7208C28.2229 19.0666 28.7534 18.5361 29.4076 18.5361H45.198C45.8522 18.5361 46.3827 19.0666 46.3827 19.7208V22.8752" stroke="white" strokeWidth="1.07243" stroke-miterlimit="10" stroke-linecap="round" stroke-linejoin="round"/>
<path d="M33.3377 34.551H30.3678V20.6809H44.2379V34.551H35.84" stroke="white" strokeWidth="1.07243" stroke-miterlimit="10" stroke-linecap="round" stroke-linejoin="round"/>
<path d="M33.5916 30.6653L35.868 24.6882C35.8957 24.6153 35.9656 24.5671 36.0436 24.5671C36.1217 24.5671 36.1918 24.6155 36.2194 24.6887L38.4749 30.6653" stroke="white" strokeWidth="1.07243" stroke-miterlimit="10" stroke-linecap="round" stroke-linejoin="round"/>
<path d="M34.3158 29.1462H37.7622" stroke="white" strokeWidth="1.07243" stroke-miterlimit="10" stroke-linecap="round" stroke-linejoin="round"/>
<path d="M40.3955 24.5671V30.6653" stroke="white" strokeWidth="1.07243" stroke-miterlimit="10" stroke-linecap="round" stroke-linejoin="round"/>
<path d="M53.8538 25.9717H50.5651V29.2605H53.8538V25.9717Z" stroke="white" strokeWidth="1.07243" stroke-miterlimit="10" stroke-linecap="round" stroke-linejoin="round"/>
<path d="M53.8539 34.8813H52.0665V36.6687H53.8539V34.8813Z" stroke="white" strokeWidth="1.07243" stroke-miterlimit="10" stroke-linecap="round" stroke-linejoin="round"/>
<path d="M53.8539 18.5637H52.0665V20.3511H53.8539V18.5637Z" stroke="white" strokeWidth="1.07243" stroke-miterlimit="10" stroke-linecap="round" stroke-linejoin="round"/>
<path d="M50.8153 21.6245H48.313V24.1268H50.8153V21.6245Z" stroke="white" strokeWidth="1.07243" stroke-miterlimit="10" stroke-linecap="round" stroke-linejoin="round"/>
<path d="M50.8153 31.1055H48.313V33.6078H50.8153V31.1055Z" stroke="white" strokeWidth="1.07243" stroke-miterlimit="10" stroke-linecap="round" stroke-linejoin="round"/>
<path d="M20.7516 29.2605L24.0404 29.2605L24.0404 25.9717L20.7516 25.9717L20.7516 29.2605Z" stroke="white" strokeWidth="1.07243" stroke-miterlimit="10" stroke-linecap="round" stroke-linejoin="round"/>
<path d="M20.7516 36.6685L22.5389 36.6685L22.5389 34.8811L20.7516 34.8811L20.7516 36.6685Z" stroke="white" strokeWidth="1.07243" stroke-miterlimit="10" stroke-linecap="round" stroke-linejoin="round"/>
<path d="M20.7516 20.3511L22.5389 20.3511L22.5389 18.5637L20.7516 18.5637L20.7516 20.3511Z" stroke="white" strokeWidth="1.07243" stroke-miterlimit="10" stroke-linecap="round" stroke-linejoin="round"/>
<path d="M23.7901 24.1267L26.2925 24.1267L26.2925 21.6244L23.7901 21.6244L23.7901 24.1267Z" stroke="white" strokeWidth="1.07243" stroke-miterlimit="10" stroke-linecap="round" stroke-linejoin="round"/>
<path d="M23.7901 33.6079L26.2925 33.6079L26.2925 31.1056L23.7901 31.1056L23.7901 33.6079Z" stroke="white" strokeWidth="1.07243" stroke-miterlimit="10" stroke-linecap="round" stroke-linejoin="round"/>
</svg>
