<svg width="73" height="73" viewBox="0 0 73 73" fill="none" xmlns="http://www.w3.org/2000/svg">
<rect width="73" height="73" rx="36.5" fill="#1BC47A"/>
<path d="M56.9796 40.9417C56.9796 40.4886 56.7996 40.0541 56.4792 39.7337C56.1589 39.4133 55.7243 39.2334 55.2713 39.2334H52.5379C53.6363 38.2019 54.3994 36.8641 54.7281 35.3937C55.0568 33.9232 54.9359 32.3879 54.3812 30.9869C53.8266 29.5859 52.8637 28.384 51.6174 27.5371C50.3712 26.6901 48.8992 26.2373 47.3925 26.2373C45.8857 26.2373 44.4137 26.6901 43.1675 27.5371C41.9212 28.384 40.9583 29.5859 40.4036 30.9869C39.849 32.3879 39.7281 33.9232 40.0568 35.3937C40.3855 36.8641 41.1486 38.2019 42.247 39.2334H39.5136C39.0677 39.2441 38.6436 39.4288 38.3321 39.748C38.0205 40.0672 37.8462 40.4956 37.8463 40.9417V42.9917C37.8497 43.3618 37.9719 43.7211 38.1948 44.0167C37.9719 44.3122 37.8497 44.6715 37.8463 45.0417V47.0917C37.8497 47.4618 37.9719 47.8211 38.1948 48.1167C37.9719 48.4122 37.8497 48.7715 37.8463 49.1417V51.1917C37.8497 51.5618 37.9719 51.9211 38.1948 52.2166C37.9719 52.5122 37.8497 52.8715 37.8463 53.2416V55.2916C37.8463 55.7447 38.0263 56.1792 38.3467 56.4996C38.667 56.82 39.1016 57 39.5546 57H55.2713C55.7243 57 56.1589 56.82 56.4792 56.4996C56.7996 56.1792 56.9796 55.7447 56.9796 55.2916V53.2416C56.9762 52.8715 56.854 52.5122 56.6311 52.2166C56.854 51.9211 56.9762 51.5618 56.9796 51.1917V49.1417C56.9762 48.7715 56.854 48.4122 56.6311 48.1167C56.854 47.8211 56.9762 47.4618 56.9796 47.0917V45.0417C56.9762 44.6715 56.854 44.3122 56.6311 44.0167C56.854 43.7211 56.9762 43.3618 56.9796 42.9917V40.9417ZM41.263 33.7667C41.263 32.5504 41.6237 31.3613 42.2994 30.35C42.9752 29.3386 43.9357 28.5503 45.0595 28.0849C46.1832 27.6194 47.4198 27.4976 48.6128 27.7349C49.8057 27.9722 50.9016 28.5579 51.7616 29.418C52.6217 30.2781 53.2075 31.3739 53.4448 32.5669C53.6821 33.7599 53.5603 34.9964 53.0948 36.1202C52.6293 37.244 51.8411 38.2045 50.8297 38.8802C49.8183 39.556 48.6293 39.9167 47.4129 39.9167C45.7819 39.9167 44.2176 39.2687 43.0643 38.1154C41.9109 36.9621 41.263 35.3978 41.263 33.7667ZM39.213 40.9417C39.213 40.8511 39.249 40.7642 39.313 40.7001C39.3771 40.636 39.464 40.6 39.5546 40.6H44.297C45.2741 41.0501 46.3371 41.2831 47.4129 41.2831C48.4888 41.2831 49.5518 41.0501 50.5289 40.6H55.2713C55.3619 40.6 55.4488 40.636 55.5129 40.7001C55.5769 40.7642 55.6129 40.8511 55.6129 40.9417V42.9917C55.6129 43.0823 55.5769 43.1692 55.5129 43.2333C55.4488 43.2973 55.3619 43.3333 55.2713 43.3333H39.5546C39.464 43.3333 39.3771 43.2973 39.313 43.2333C39.249 43.1692 39.213 43.0823 39.213 42.9917V40.9417ZM55.6129 45.0417V47.0917C55.6129 47.1823 55.5769 47.2692 55.5129 47.3333C55.4488 47.3973 55.3619 47.4333 55.2713 47.4333H39.5546C39.464 47.4333 39.3771 47.3973 39.313 47.3333C39.249 47.2692 39.213 47.1823 39.213 47.0917V45.0417C39.213 44.9511 39.249 44.8642 39.313 44.8001C39.3771 44.736 39.464 44.7 39.5546 44.7H55.2713C55.3619 44.7 55.4488 44.736 55.5129 44.8001C55.5769 44.8642 55.6129 44.9511 55.6129 45.0417ZM55.6129 49.1417V51.1917C55.6129 51.2823 55.5769 51.3692 55.5129 51.4332C55.4488 51.4973 55.3619 51.5333 55.2713 51.5333H39.5546C39.464 51.5333 39.3771 51.4973 39.313 51.4332C39.249 51.3692 39.213 51.2823 39.213 51.1917V49.1417C39.213 49.051 39.249 48.9641 39.313 48.9001C39.3771 48.836 39.464 48.8 39.5546 48.8H55.2713C55.3619 48.8 55.4488 48.836 55.5129 48.9001C55.5769 48.9641 55.6129 49.051 55.6129 49.1417ZM55.6129 55.2916C55.6129 55.3823 55.5769 55.4692 55.5129 55.5332C55.4488 55.5973 55.3619 55.6333 55.2713 55.6333H39.5546C39.464 55.6333 39.3771 55.5973 39.313 55.5332C39.249 55.4692 39.213 55.3823 39.213 55.2916V53.2416C39.213 53.151 39.249 53.0641 39.313 53C39.3771 52.936 39.464 52.9 39.5546 52.9H55.2713C55.3619 52.9 55.4488 52.936 55.5129 53C55.5769 53.0641 55.6129 53.151 55.6129 53.2416V55.2916Z" fill="white"/>
<path d="M25.5464 25.5666C26.4924 25.5666 27.4172 25.2861 28.2039 24.7605C28.9905 24.2349 29.6036 23.4879 29.9656 22.6138C30.3276 21.7398 30.4224 20.778 30.2378 19.8501C30.0532 18.9223 29.5977 18.07 28.9287 17.401C28.2597 16.732 27.4074 16.2765 26.4796 16.0919C25.5517 15.9073 24.5899 16.0021 23.7159 16.3641C22.8418 16.7261 22.0948 17.3392 21.5692 18.1259C21.0436 18.9125 20.7631 19.8373 20.7631 20.7833C20.7631 22.0519 21.267 23.2686 22.1641 24.1656C23.0611 25.0627 24.2778 25.5666 25.5464 25.5666ZM25.5464 17.3667C26.2221 17.3667 26.8827 17.567 27.4446 17.9425C28.0064 18.3179 28.4444 18.8515 28.703 19.4758C28.9616 20.1001 29.0292 20.7871 28.8974 21.4499C28.7656 22.1126 28.4401 22.7214 27.9623 23.1993C27.4845 23.6771 26.8757 24.0025 26.2129 24.1343C25.5502 24.2662 24.8632 24.1985 24.2389 23.9399C23.6146 23.6813 23.081 23.2434 22.7055 22.6815C22.3301 22.1196 22.1297 21.4591 22.1297 20.7833C22.1297 19.8772 22.4897 19.0081 23.1304 18.3674C23.7712 17.7266 24.6402 17.3667 25.5464 17.3667Z" fill="white"/>
<path d="M18.8292 41.9666C19.2738 41.9422 19.7046 41.8033 20.0797 41.5634V53.959C20.0815 54.3607 20.1625 54.7582 20.3181 55.1285C20.4737 55.4989 20.7008 55.8349 20.9864 56.1173C21.272 56.3998 21.6106 56.6231 21.9826 56.7746C22.3547 56.926 22.753 57.0026 23.1547 56.9999C23.6143 56.9984 24.0677 56.8938 24.4816 56.694C24.8955 56.4941 25.2593 56.204 25.5463 55.845C25.8333 56.204 26.1972 56.4941 26.6111 56.694C27.025 56.8938 27.4784 56.9984 27.938 56.9999C28.3397 57.0026 28.738 56.926 29.11 56.7746C29.4821 56.6231 29.8206 56.3998 30.1063 56.1173C30.3919 55.8349 30.619 55.4989 30.7746 55.1285C30.9302 54.7582 31.0112 54.3607 31.013 53.959V32.0924C31.013 32.0018 31.049 31.9149 31.1131 31.8509C31.1771 31.7868 31.264 31.7508 31.3547 31.7508H37.163C37.8225 31.7429 38.4568 31.4968 38.9491 31.0579C39.4414 30.619 39.7584 30.0169 39.8417 29.3626C39.9249 28.7084 39.7688 28.0461 39.4021 27.4979C39.0354 26.9497 38.4828 26.5526 37.8463 26.3798V23.3458L46.9141 20.7833C47.056 20.7419 47.1807 20.6556 47.2694 20.5373C47.3581 20.419 47.4061 20.2752 47.4061 20.1273C47.4061 19.9795 47.3581 19.8356 47.2694 19.7173C47.1807 19.599 47.056 19.5127 46.9141 19.4713L37.8463 16.8542V16.6833C37.8463 16.5021 37.7743 16.3283 37.6462 16.2001C37.518 16.072 37.3442 16 37.163 16C36.9817 16 36.8079 16.072 36.6798 16.2001C36.5516 16.3283 36.4796 16.5021 36.4796 16.6833V26.25H21.214C20.509 26.25 19.8113 26.3942 19.164 26.6736C18.2289 27.0773 17.4317 27.7447 16.8698 28.5942C16.308 29.4437 16.0058 30.4385 16.0002 31.457V39.2333C15.9955 39.6202 16.0742 40.0036 16.231 40.3574C16.3879 40.7111 16.6191 41.0269 16.909 41.2833C17.4371 41.7501 18.125 41.9949 18.8292 41.9666ZM44.2423 20.1L37.8463 21.9245V18.2755L44.2423 20.1ZM24.2548 35.3314L25.1773 30.309C25.2994 30.3297 25.4226 30.3434 25.5463 30.35C25.67 30.3434 25.7932 30.3297 25.9153 30.309L26.831 35.3178C26.866 35.5032 26.8494 35.6946 26.7832 35.8713L25.5463 38.3723L24.3232 35.8986C24.2485 35.7195 24.2249 35.5232 24.2548 35.3314ZM26.1477 28.8466C25.9391 28.9488 25.7079 28.9962 25.476 28.9842C25.244 28.9723 25.019 28.9014 24.822 28.7783C24.6251 28.6552 24.4627 28.4839 24.3503 28.2807C24.2379 28.0774 24.1792 27.8489 24.1797 27.6166H26.913C26.9135 27.8728 26.842 28.1239 26.7067 28.3414C26.5714 28.5589 26.3777 28.7339 26.1477 28.8466ZM17.3464 31.4843C17.3449 30.7273 17.5664 29.9866 17.9832 29.3547C18.4 28.7228 18.9937 28.2276 19.6902 27.931C20.17 27.7191 20.6895 27.6119 21.214 27.6166H22.813C22.8138 28.0358 22.9109 28.4491 23.097 28.8248C23.283 29.2004 23.5529 29.5282 23.8858 29.7828L22.9087 35.1333C22.8332 35.5958 22.8925 36.0702 23.0795 36.4999L24.9313 40.2446C24.9873 40.3601 25.0747 40.4576 25.1834 40.5257C25.2922 40.5939 25.418 40.6301 25.5463 40.6301C25.6747 40.6301 25.8005 40.5939 25.9092 40.5257C26.018 40.4576 26.1054 40.3601 26.1613 40.2446L28.0268 36.4726C28.2088 36.0414 28.2611 35.5664 28.1772 35.1059L27.2068 29.8033C27.5425 29.5466 27.8141 29.2155 28.0003 28.8361C28.1864 28.4567 28.2821 28.0392 28.2797 27.6166H37.163C37.5254 27.6166 37.873 27.7606 38.1293 28.0169C38.3856 28.2732 38.5296 28.6208 38.5296 28.9833C38.5296 29.3458 38.3856 29.6934 38.1293 29.9497C37.873 30.206 37.5254 30.35 37.163 30.35H31.3547C30.9016 30.35 30.4671 30.5299 30.1467 30.8503C29.8263 31.1707 29.6463 31.6052 29.6463 32.0583V53.959C29.6472 54.1802 29.6028 54.3991 29.5158 54.6025C29.4289 54.8058 29.3012 54.9891 29.1407 55.1412C28.9833 55.2995 28.7958 55.4247 28.5892 55.5092C28.3826 55.5937 28.1612 55.6359 27.938 55.6332C27.4897 55.6369 27.0582 55.4627 26.7381 55.149C26.4179 54.8352 26.2351 54.4073 26.2297 53.959V42.6499C26.2297 42.4687 26.1577 42.2949 26.0295 42.1667C25.9014 42.0386 25.7276 41.9666 25.5463 41.9666C25.3651 41.9666 25.1913 42.0386 25.0632 42.1667C24.935 42.2949 24.863 42.4687 24.863 42.6499V53.959C24.8576 54.4073 24.6748 54.8352 24.3546 55.149C24.0344 55.4627 23.603 55.6369 23.1547 55.6332C22.9299 55.6355 22.707 55.5925 22.4992 55.5068C22.2914 55.4211 22.103 55.2945 21.9452 55.1344C21.7864 54.9827 21.6603 54.8003 21.5745 54.5982C21.4887 54.3961 21.4451 54.1786 21.4464 53.959V34.4499C21.4464 34.2687 21.3744 34.0949 21.2462 33.9668C21.1181 33.8386 20.9443 33.7666 20.763 33.7666C20.5818 33.7666 20.408 33.8386 20.2798 33.9668C20.1517 34.0949 20.0797 34.2687 20.0797 34.4499V39.1034C20.092 39.4718 19.9642 39.8311 19.7219 40.1088C19.4797 40.3866 19.1411 40.5621 18.7745 40.5999C18.5899 40.6082 18.4056 40.579 18.2326 40.5141C18.0596 40.4491 17.9016 40.3498 17.7681 40.222C17.6347 40.0943 17.5284 39.9408 17.456 39.7709C17.3835 39.6009 17.3462 39.418 17.3464 39.2333V31.4843Z" fill="white"/>
<path d="M48.0963 35.8165H45.363C45.1818 35.8165 45.008 35.8885 44.8798 36.0166C44.7517 36.1448 44.6797 36.3186 44.6797 36.4998C44.6797 36.681 44.7517 36.8548 44.8798 36.983C45.008 37.1111 45.1818 37.1831 45.363 37.1831H46.7297V37.8665C46.7297 38.0477 46.8017 38.2215 46.9298 38.3496C47.058 38.4778 47.2318 38.5498 47.413 38.5498C47.5942 38.5498 47.7681 38.4778 47.8962 38.3496C48.0244 38.2215 48.0963 38.0477 48.0963 37.8665V37.1831C48.64 37.1831 49.1615 36.9671 49.5459 36.5827C49.9304 36.1982 50.1463 35.6768 50.1463 35.1331C50.1463 34.5894 49.9304 34.068 49.5459 33.6836C49.1615 33.2991 48.64 33.0831 48.0963 33.0831H46.7297C46.5485 33.0831 46.3746 33.0111 46.2465 32.883C46.1183 32.7548 46.0463 32.581 46.0463 32.3998C46.0463 32.2186 46.1183 32.0448 46.2465 31.9166C46.3746 31.7885 46.5485 31.7165 46.7297 31.7165H49.463C49.6442 31.7165 49.818 31.6445 49.9462 31.5163C50.0743 31.3882 50.1463 31.2144 50.1463 31.0331C50.1463 30.8519 50.0743 30.6781 49.9462 30.55C49.818 30.4218 49.6442 30.3498 49.463 30.3498H48.0963V29.6665C48.0963 29.4853 48.0244 29.3114 47.8962 29.1833C47.7681 29.0551 47.5942 28.9832 47.413 28.9832C47.2318 28.9832 47.058 29.0551 46.9298 29.1833C46.8017 29.3114 46.7297 29.4853 46.7297 29.6665V30.3498C46.186 30.3498 45.6646 30.5658 45.2801 30.9502C44.8957 31.3347 44.6797 31.8561 44.6797 32.3998C44.6797 32.9435 44.8957 33.4649 45.2801 33.8494C45.6646 34.2338 46.186 34.4498 46.7297 34.4498H48.0963C48.2776 34.4498 48.4514 34.5218 48.5795 34.6499C48.7077 34.7781 48.7797 34.9519 48.7797 35.1331C48.7797 35.3144 48.7077 35.4882 48.5795 35.6163C48.4514 35.7445 48.2776 35.8165 48.0963 35.8165Z" fill="white"/>
</svg>
